<svg width="26" height="24" viewBox="0 0 26 24" fill="none" xmlns="http://www.w3.org/2000/svg">
<g clip-path="url(#clip0_117_332)">
<mask id="mask0_117_332" style="mask-type:luminance" maskUnits="userSpaceOnUse" x="1" y="0" width="25" height="24">
<path d="M25.3789 0H1.37891V24H25.3789V0Z" fill="white"/>
</mask>
<g mask="url(#mask0_117_332)">
<path d="M24.8795 6.50805C24.7436 6.02328 24.4789 5.5844 24.1135 5.23805C23.7378 4.88106 23.2773 4.62569 22.7755 4.49605C20.8975 4.00105 13.3735 4.00105 13.3735 4.00105C10.2368 3.96537 7.10095 4.12233 3.98352 4.47105C3.48171 4.61027 3.02209 4.87134 2.64552 5.23105C2.27552 5.58705 2.00752 6.02605 1.86752 6.50705C1.53122 8.3188 1.36782 10.1584 1.37952 12.0011C1.36752 13.8421 1.53052 15.6811 1.86752 17.4951C2.00452 17.9741 2.27152 18.4111 2.64252 18.7641C3.01352 19.1171 3.47552 19.3721 3.98352 19.5071C5.88652 20.0011 13.3735 20.0011 13.3735 20.0011C16.5142 20.0368 19.6541 19.8798 22.7755 19.5311C23.2773 19.4014 23.7378 19.146 24.1135 18.7891C24.4788 18.4428 24.7432 18.0038 24.8785 17.5191C25.2236 15.708 25.3914 13.8676 25.3795 12.0241C25.4055 10.1727 25.2379 8.32462 24.8795 6.50805ZM10.9815 15.4251V8.57805L17.2415 12.0021L10.9815 15.4251Z" fill="#005C30"/>
</g>
</g>
<defs>
<clipPath id="clip0_117_332">
<rect width="25" height="24" fill="white" transform="translate(0.5)"/>
</clipPath>
</defs>
</svg>
